HIERARCHY
ROOT Hips
{
	OFFSET 0.000000 100.481300 0.000000
	CHANNELS 6 Xposition Yposition Zposition Xrotation Yrotation Zrotation 
	JOINT Spine
	{
		OFFSET -0.279200 12.230698 -2.892100
		CHANNELS 3 Xrotation Yrotation Zrotation
		JOINT Spine1
		{
			OFFSET -0.232667 10.192268 -1.242267
			CHANNELS 3 Xrotation Yrotation Zrotation
			JOINT Spine1_split
			{
				OFFSET -0.232667 10.192268 -1.242267
				CHANNELS 3 Xrotation Yrotation Zrotation
				JOINT Spine2
				{
					OFFSET -0.232667 10.192268 -1.242267
					CHANNELS 3 Xrotation Yrotation Zrotation
					JOINT Neck
					{
						OFFSET -0.418800 17.814194 8.416900
						CHANNELS 3 Xrotation Yrotation Zrotation
						JOINT Head
						{
							OFFSET 0.000000 7.031097 3.806800
							CHANNELS 3 Xrotation Yrotation Zrotation
							JOINT HeadTop_End
							{
								OFFSET 0.000000 24.646606 12.978600
								CHANNELS 3 Xrotation Yrotation Zrotation
								End Site
								{
									OFFSET 0.000000 0.000000 0.000000
								}
							}
						}
					}
					JOINT LeftShoulder
					{
						OFFSET 8.476499 7.247704 -3.868750
						CHANNELS 3 Xrotation Yrotation Zrotation
						JOINT LeftShoulder_split
						{
							OFFSET 8.476499 7.247704 -3.868750
							CHANNELS 3 Xrotation Yrotation Zrotation
							JOINT LeftArm
							{
								OFFSET 9.308998 -2.777710 0.208600
								CHANNELS 3 Xrotation Yrotation Zrotation
								JOINT LeftForeArm
								{
									OFFSET 29.972298 0.000000 0.000000
									CHANNELS 3 Xrotation Yrotation Zrotation
									JOINT LeftHand
									{
										OFFSET 26.026505 0.000000 0.000000
										CHANNELS 3 Xrotation Yrotation Zrotation
										JOINT LeftHandThumb1
										{
											OFFSET 12.240501 -7.147949 9.207150
											CHANNELS 3 Xrotation Yrotation Zrotation
											JOINT LeftHandThumb2
											{
												OFFSET 4.138618 -2.389435 2.389433
												CHANNELS 3 Xrotation Yrotation Zrotation
												JOINT LeftHandThumb3
												{
													OFFSET 2.726913 -1.574387 1.574386
													CHANNELS 3 Xrotation Yrotation Zrotation
													JOINT LeftHandThumb4
													{
														OFFSET 3.941010 -2.275345 2.275342
														CHANNELS 3 Xrotation Yrotation Zrotation
														End Site
														{
															OFFSET 0.000000 0.000000 0.000000
														}
													}
												}
											}
										}
										JOINT LeftHandIndex1
										{
											OFFSET 24.424698 -1.985611 5.953459
											CHANNELS 3 Xrotation Yrotation Zrotation
											JOINT LeftHandIndex2
											{
												OFFSET 6.426697 0.000000 0.000000
												CHANNELS 3 Xrotation Yrotation Zrotation
												JOINT LeftHandIndex3
												{
													OFFSET 5.337898 0.000000 0.000000
													CHANNELS 3 Xrotation Yrotation Zrotation
													JOINT LeftHandIndex4
													{
														OFFSET 4.409401 0.000000 0.000000
														CHANNELS 3 Xrotation Yrotation Zrotation
														End Site
														{
															OFFSET 0.000000 0.000000 0.000000
														}
													}
												}
											}
										}
										JOINT LeftHandMiddle1
										{
											OFFSET 23.810104 0.000000 0.000000
											CHANNELS 3 Xrotation Yrotation Zrotation
											JOINT LeftHandMiddle2
											{
												OFFSET 7.176498 0.000000 0.000000
												CHANNELS 3 Xrotation Yrotation Zrotation
												JOINT LeftHandMiddle3
												{
													OFFSET 6.774902 0.000000 0.000000
													CHANNELS 3 Xrotation Yrotation Zrotation
													JOINT LeftHandMiddle4
													{
														OFFSET 5.403328 0.000000 0.000000
														CHANNELS 3 Xrotation Yrotation Zrotation
														End Site
														{
															OFFSET 0.000000 0.000000 0.000000
														}
													}
												}
											}
										}
										JOINT LeftHandRing1
										{
											OFFSET 22.908401 -0.839279 -6.020567
											CHANNELS 3 Xrotation Yrotation Zrotation
											JOINT LeftHandRing2
											{
												OFFSET 6.337502 0.000000 0.000000
												CHANNELS 3 Xrotation Yrotation Zrotation
												JOINT LeftHandRing3
												{
													OFFSET 5.779297 0.000000 0.000000
													CHANNELS 3 Xrotation Yrotation Zrotation
													JOINT LeftHandRing4
													{
														OFFSET 4.965698 0.000000 0.000000
														CHANNELS 3 Xrotation Yrotation Zrotation
														End Site
														{
															OFFSET 0.000000 0.000000 0.000000
														}
													}
												}
											}
										}
										JOINT LeftHandPinky1
										{
											OFFSET 20.037003 -1.530319 -10.950146
											CHANNELS 3 Xrotation Yrotation Zrotation
											JOINT LeftHandPinky2
											{
												OFFSET 5.254700 0.000000 0.000000
												CHANNELS 3 Xrotation Yrotation Zrotation
												JOINT LeftHandPinky3
												{
													OFFSET 4.810204 0.000000 0.000000
													CHANNELS 3 Xrotation Yrotation Zrotation
													JOINT LeftHandPinky4
													{
														OFFSET 3.647202 0.000000 0.000000
														CHANNELS 3 Xrotation Yrotation Zrotation
														End Site
														{
															OFFSET 0.000000 0.000000 0.000000
														}
													}
												}
											}
										}
									}
								}
							}
						}
					}
					JOINT RightShoulder
					{
						OFFSET -7.570500 7.247704 -3.868750
						CHANNELS 3 Xrotation Yrotation Zrotation
						JOINT RightShoulder_split
						{
							OFFSET -7.570500 7.247704 -3.868750
							CHANNELS 3 Xrotation Yrotation Zrotation
							JOINT RightArm
							{
								OFFSET -9.308998 -2.777710 0.208500
								CHANNELS 3 Xrotation Yrotation Zrotation
								JOINT RightForeArm
								{
									OFFSET -29.972300 0.000000 0.000000
									CHANNELS 3 Xrotation Yrotation Zrotation
									JOINT RightHand
									{
										OFFSET -26.026505 0.000000 0.000000
										CHANNELS 3 Xrotation Yrotation Zrotation
										JOINT RightHandThumb1
										{
											OFFSET -12.240601 -7.148026 9.207092
											CHANNELS 3 Xrotation Yrotation Zrotation
											JOINT RightHandThumb2
											{
												OFFSET -4.138618 -2.389435 2.389433
												CHANNELS 3 Xrotation Yrotation Zrotation
												JOINT RightHandThumb3
												{
													OFFSET -2.726974 -1.574417 1.574421
													CHANNELS 3 Xrotation Yrotation Zrotation
													JOINT RightHandThumb4
													{
														OFFSET -3.941010 -2.275345 2.275343
														CHANNELS 3 Xrotation Yrotation Zrotation
														End Site
														{
															OFFSET 0.000000 0.000000 0.000000
														}
													}
												}
											}
										}
										JOINT RightHandIndex1
										{
											OFFSET -24.424698 -1.985657 5.953444
											CHANNELS 3 Xrotation Yrotation Zrotation
											JOINT RightHandIndex2
											{
												OFFSET -6.426697 0.000000 0.000000
												CHANNELS 3 Xrotation Yrotation Zrotation
												JOINT RightHandIndex3
												{
													OFFSET -5.337898 0.000000 0.000000
													CHANNELS 3 Xrotation Yrotation Zrotation
													JOINT RightHandIndex4
													{
														OFFSET -4.409401 0.000000 0.000000
														CHANNELS 3 Xrotation Yrotation Zrotation
														End Site
														{
															OFFSET 0.000000 0.000000 0.000000
														}
													}
												}
											}
										}
										JOINT RightHandMiddle1
										{
											OFFSET -23.810097 0.000000 0.000000
											CHANNELS 3 Xrotation Yrotation Zrotation
											JOINT RightHandMiddle2
											{
												OFFSET -7.176498 0.000000 0.000000
												CHANNELS 3 Xrotation Yrotation Zrotation
												JOINT RightHandMiddle3
												{
													OFFSET -6.774902 0.000000 0.000000
													CHANNELS 3 Xrotation Yrotation Zrotation
													JOINT RightHandMiddle4
													{
														OFFSET -5.403328 0.000000 0.000000
														CHANNELS 3 Xrotation Yrotation Zrotation
														End Site
														{
															OFFSET 0.000000 0.000000 0.000000
														}
													}
												}
											}
										}
										JOINT RightHandRing1
										{
											OFFSET -22.908302 -0.839325 -6.020576
											CHANNELS 3 Xrotation Yrotation Zrotation
											JOINT RightHandRing2
											{
												OFFSET -6.337502 0.000000 0.000000
												CHANNELS 3 Xrotation Yrotation Zrotation
												JOINT RightHandRing3
												{
													OFFSET -5.779297 0.000000 0.000000
													CHANNELS 3 Xrotation Yrotation Zrotation
													JOINT RightHandRing4
													{
														OFFSET -4.965698 0.000000 0.000000
														CHANNELS 3 Xrotation Yrotation Zrotation
														End Site
														{
															OFFSET 0.000000 0.000000 0.000000
														}
													}
												}
											}
										}
										JOINT RightHandPinky1
										{
											OFFSET -20.037003 -1.530334 -10.950259
											CHANNELS 3 Xrotation Yrotation Zrotation
											JOINT RightHandPinky2
											{
												OFFSET -5.254700 0.000000 0.000000
												CHANNELS 3 Xrotation Yrotation Zrotation
												JOINT RightHandPinky3
												{
													OFFSET -4.810204 0.000000 0.000000
													CHANNELS 3 Xrotation Yrotation Zrotation
													JOINT RightHandPinky4
													{
														OFFSET -3.647202 0.000000 0.000000
														CHANNELS 3 Xrotation Yrotation Zrotation
														End Site
														{
															OFFSET 0.000000 0.000000 0.000000
														}
													}
												}
											}
										}
									}
								}
							}
						}
					}
				}
			}
		}
	}
	JOINT LeftUpLeg
	{
		OFFSET 15.427100 -6.655098 0.678600
		CHANNELS 3 Xrotation Yrotation Zrotation
		JOINT LeftLeg
		{
			OFFSET 4.081073 -39.591068 13.024000
			CHANNELS 3 Xrotation Yrotation Zrotation
			JOINT LeftFoot
			{
				OFFSET -4.081074 -37.707932 -15.979700
				CHANNELS 3 Xrotation Yrotation Zrotation
				JOINT LeftToeBase
				{
					OFFSET 5.346399 -15.068900 20.645000
					CHANNELS 3 Xrotation Yrotation Zrotation
					JOINT LeftToe_End
					{
						OFFSET 2.754700 0.931300 11.300900
						CHANNELS 3 Xrotation Yrotation Zrotation
						End Site
						{
							OFFSET 0.000000 0.000000 0.000000
						}
					}
				}
			}
		}
	}
	JOINT RightUpLeg
	{
		OFFSET -15.569500 -6.655098 0.678600
		CHANNELS 3 Xrotation Yrotation Zrotation
		JOINT RightLeg
		{
			OFFSET -4.081825 -39.591045 13.023800
			CHANNELS 3 Xrotation Yrotation Zrotation
			JOINT RightFoot
			{
				OFFSET 4.081824 -37.707954 -15.979600
				CHANNELS 3 Xrotation Yrotation Zrotation
				JOINT RightToeBase
				{
					OFFSET -5.346400 -15.068900 20.645000
					CHANNELS 3 Xrotation Yrotation Zrotation
					JOINT RightToe_End
					{
						OFFSET -2.754700 0.931300 11.300900
						CHANNELS 3 Xrotation Yrotation Zrotation
						End Site
						{
							OFFSET 0.000000 0.000000 0.000000
						}
					}
				}
			}
		}
	}
}
MOTION
Frames: 5
Frame Time: 0.016667
8.089580 81.814316 -0.884040 7.617118 -12.513204 -0.972465 12.249340 3.500949 -0.987558 8.663410 6.770425 -1.612663 0.000000 0.000000 0.000000 -3.297300 6.958099 -0.159534 -0.991920 -3.974978 2.371376 -6.068531 4.595728 3.692732 -0.000000 -0.000000 -0.000000 -1.718770 -6.046466 -0.999763 0.000000 0.000000 0.000000 -9.929220 -3.537261 -61.475671 -13.021849 -28.779221 -4.874865 3.253024 -3.484881 2.550442 9.040739 -12.718931 18.216745 1.363588 15.487452 -8.835073 2.768806 5.065085 -0.579234 0.000001 -0.000001 0.000000 0.246870 -3.282370 -9.380859 0.146896 -0.568600 -12.524053 0.007947 -0.244580 -4.933857 0.000001 -0.000001 -0.000000 0.303775 -1.400850 -19.445118 -0.067848 -0.992376 -19.744953 0.120421 -0.521072 -9.722800 0.000001 0.000001 -0.000001 0.311370 -1.053611 -29.065576 -0.418714 -1.362104 -26.922213 -0.031961 -0.468517 -8.966088 -0.000004 -0.000002 -0.000002 0.350743 -0.343929 -35.674662 -0.294692 -1.232612 -23.599883 -0.758161 -0.710873 -15.408142 0.000000 0.000001 -0.000001 5.719874 -19.303438 3.068948 0.000000 0.000000 0.000000 43.556734 52.747601 9.950972 16.038104 32.046831 10.507647 -14.715656 13.315882 13.704579 9.209766 13.472198 -12.080007 2.060345 -16.534843 8.984661 2.637309 -3.206707 2.677728 -0.000000 0.000000 0.000002 0.272413 4.252677 3.917187 0.097343 0.794947 17.452774 -0.022314 0.374570 8.076824 0.000001 -0.000001 -0.000002 0.238356 1.901027 12.464136 -0.127013 0.878977 17.470138 -0.255543 0.923243 18.481725 -0.000001 -0.000001 0.000000 0.354440 1.611350 15.137400 -0.271886 0.900470 18.135629 0.013484 0.824269 15.075134 -0.000000 -0.000001 -0.000001 0.691713 0.544316 20.829721 -0.117081 0.729761 14.164458 -0.467987 0.674869 13.260782 -0.000000 0.000002 -0.000001 -36.780808 4.688343 16.227464 49.668009 8.200405 -1.637190 -17.715381 5.712690 -10.535266 -3.075538 -2.348339 -2.459414 -0.000000 -0.000000 0.000000 -22.232384 -7.023749 -17.627426 50.413182 -5.583515 -2.868043 -18.949409 -5.050213 14.301058 -15.200851 -4.745637 7.175893 -0.000000 -0.000003 0.000000 
8.251522 82.414886 -0.864870 7.676531 -12.552617 -1.351712 12.199738 3.457272 -0.867333 8.547018 6.722059 -1.512190 0.000000 0.000000 0.000000 -3.408235 6.901167 -0.063846 -1.053642 -3.761029 2.184397 -5.982004 4.507764 3.913931 -0.000002 0.000000 0.000000 -1.721884 -5.625957 -0.861950 0.000000 0.000000 0.000000 -9.809319 -3.483231 -61.749657 -12.683619 -28.217823 -4.423329 2.945146 -3.556565 2.922804 8.621183 -13.079503 18.342630 1.306465 15.454476 -8.827669 2.548440 4.752308 -0.598160 0.000001 0.000001 -0.000000 0.229286 -3.521994 -8.971267 0.151046 -0.550437 -12.121711 0.010813 -0.207380 -4.147086 0.000001 0.000001 -0.000000 0.267618 -1.573900 -19.285049 -0.064365 -0.926963 -18.408108 0.102049 -0.466378 -8.764223 0.000000 0.000002 0.000002 0.257087 -1.314058 -28.904257 -0.368984 -1.304187 -25.643802 0.000476 -0.409338 -7.777152 0.000001 0.000001 0.000003 0.348992 -0.523211 -35.437173 -0.234775 -1.172895 -22.279367 -0.680095 -0.667831 -14.014332 0.000001 0.000000 -0.000000 5.552876 -18.831825 2.973356 0.000000 0.000000 0.000000 39.568266 52.456573 11.456149 15.406275 28.844346 12.492165 -12.915754 11.870634 10.921177 8.723119 10.519498 -15.535899 3.760575 -18.612708 9.384830 2.619911 -3.214962 2.638594 -0.000002 0.000000 -0.000001 0.272401 4.252699 3.917204 0.097364 0.794931 17.452745 -0.022325 0.374577 8.076807 -0.000002 0.000001 -0.000003 0.238598 1.901085 12.464103 -0.127008 0.878900 17.470149 -0.252908 0.923468 18.481713 -0.000000 -0.000001 0.000001 0.333464 1.685680 16.601063 -0.293340 0.971905 19.599069 -0.008522 0.902006 16.538314 -0.000000 0.000000 -0.000001 0.658932 0.626611 22.524507 -0.138284 0.820278 15.858970 -0.486931 0.753909 14.955826 -0.000000 -0.000001 0.000002 -36.453645 4.807907 16.357922 48.715754 8.234061 -1.540440 -17.311774 5.627850 -10.322199 -3.075516 -2.348363 -2.459410 0.000000 -0.000001 -0.000000 -21.976489 -7.372866 -16.761826 48.170257 -4.999424 -2.788793 -19.137493 -4.333047 14.495188 -14.272389 -2.388008 5.487247 -0.000000 0.000000 -0.000000 
8.400887 83.064606 -0.876296 7.693143 -12.696971 -1.586477 12.130256 3.434115 -0.751779 8.392767 6.705786 -1.434636 0.000000 0.000000 0.000000 -3.557801 6.874139 0.015578 -1.257217 -3.492914 1.762465 -5.750385 4.331828 4.311509 -0.000000 -0.000000 -0.000000 -1.718688 -4.981517 -0.876835 0.000000 0.000000 0.000000 -9.750001 -3.501923 -62.027407 -12.393335 -27.714432 -3.952347 2.908206 -3.641424 2.842474 8.234313 -13.400430 18.456496 1.254987 15.424691 -8.821077 2.348805 4.470544 -0.616936 0.000001 -0.000001 -0.000003 0.217568 -3.737804 -8.582427 0.154705 -0.534111 -11.758754 0.012892 -0.173821 -3.437451 0.000001 0.000001 -0.000000 0.236383 -1.729265 -19.127286 -0.062514 -0.868302 -17.202217 0.084648 -0.417769 -7.899480 0.000001 -0.000001 -0.000001 0.210332 -1.547681 -28.740118 -0.325337 -1.250630 -24.490873 0.028696 -0.354987 -6.704771 0.000002 -0.000000 0.000002 0.351876 -0.683526 -35.201156 -0.181886 -1.117251 -21.088371 -0.610116 -0.626182 -12.757323 -0.000001 -0.000000 -0.000002 5.335515 -18.451763 2.888870 0.000000 0.000000 0.000000 35.701303 51.672307 13.059070 16.301519 26.406577 13.088698 -11.445502 11.784218 6.571854 8.389688 8.489664 -17.965508 4.956789 -20.040653 9.703280 2.602558 -3.223205 2.599443 -0.000000 0.000000 -0.000000 0.272389 4.252685 3.917160 0.097346 0.794951 17.452839 -0.022314 0.374592 8.076828 -0.000002 -0.000001 -0.000003 0.238810 1.901184 12.464100 -0.127009 0.878918 17.470135 -0.250227 0.923631 18.481720 -0.000000 0.000000 -0.000002 0.317763 1.737013 17.612012 -0.308445 1.021281 20.609998 -0.024858 0.955242 17.548981 -0.000001 -0.000001 -0.000001 0.634944 0.682614 23.695195 -0.152824 0.879844 17.029583 -0.501149 0.808212 16.126678 -0.000001 -0.000001 0.000001 -35.967045 5.067307 16.386793 47.588937 8.307041 -1.443128 -16.830428 5.576478 -10.121468 -3.075495 -2.348372 -2.459415 0.000000 -0.000001 0.000000 -21.628725 -7.607946 -16.078400 45.750161 -4.593677 -2.693607 -19.271172 -3.586935 14.680756 -11.724239 -2.235841 4.212639 -0.000000 0.000000 0.000000 
8.510062 83.691368 -0.862412 7.714059 -12.794455 -1.819455 12.058588 3.416274 -0.627923 8.235419 6.693141 -1.358527 0.000000 0.000000 0.000000 -3.710611 6.857831 0.094729 -1.458328 -3.264164 1.331757 -5.486256 4.125538 4.660446 0.000000 0.000000 -0.000001 -1.716041 -4.454584 -0.893411 0.000000 0.000000 0.000000 -9.717396 -3.541830 -62.272276 -11.923623 -27.096120 -3.494372 2.744754 -3.959312 2.862270 7.883939 -13.676968 18.558640 1.209537 15.398672 -8.814978 2.172644 4.222995 -0.634735 -0.000000 -0.000000 -0.000003 0.211197 -3.927037 -8.217435 0.157841 -0.519710 -11.439758 0.014346 -0.144350 -2.813561 0.000000 0.000001 0.000000 0.210203 -1.865052 -18.972483 -0.061832 -0.817026 -16.141858 0.068721 -0.375535 -7.139141 -0.000000 0.000002 0.000003 0.171269 -1.751788 -28.573632 -0.287836 -1.202504 -23.477081 0.052728 -0.306455 -5.761896 -0.000001 0.000002 -0.000001 0.356397 -0.823108 -34.967481 -0.136342 -1.066883 -20.041247 -0.549407 -0.587311 -11.652089 -0.000001 0.000001 -0.000001 5.098992 -17.776582 2.830944 0.000000 0.000000 0.000000 31.146831 51.316881 16.165629 17.702667 22.785041 11.882992 -9.757220 12.247061 4.285804 8.265260 7.734464 -18.880852 5.407758 -20.572224 9.831260 2.585102 -3.231396 2.560346 0.000000 -0.000004 -0.000000 0.272384 4.252682 3.917163 0.097382 0.794953 17.452798 -0.022299 0.374592 8.076831 0.000001 0.000000 -0.000001 0.239034 1.901198 12.464083 -0.126990 0.878920 17.470125 -0.247602 0.923908 18.481722 -0.000000 0.000001 0.000000 0.313141 1.756768 17.989238 -0.312750 1.040272 20.987162 -0.031218 0.975070 17.926108 0.000000 0.000000 0.000000 0.625747 0.703344 24.132023 -0.156814 0.902487 17.466305 -0.506302 0.828691 16.563521 -0.000000 -0.000001 0.000000 -35.569084 5.502381 16.363953 46.465271 8.180189 -1.165428 -16.359264 5.581893 -9.896434 -3.075518 -2.348393 -2.459423 -0.000000 -0.000000 0.000000 -21.235166 -7.825840 -15.522658 43.357942 -4.405028 -2.528452 -19.287510 -2.720687 14.908165 -8.843850 -2.898039 4.936615 0.000000 0.000002 0.000000 
8.640676 84.267494 -0.919497 7.731332 -12.911907 -2.050797 11.985675 3.401889 -0.498989 8.076082 6.682152 -1.283643 0.000000 0.000000 0.000000 -3.865396 6.846915 0.173205 -1.691409 -3.047243 0.751944 -5.158181 3.831013 5.063943 0.000003 0.000000 -0.000000 -1.703477 -4.073360 -1.096772 0.000000 0.000000 0.000000 -9.664149 -3.522008 -62.401339 -11.500617 -26.618038 -3.042143 2.459123 -4.058515 2.395170 7.573812 -13.904512 18.649188 1.170963 15.376581 -8.809693 2.022630 4.013045 -0.650861 -0.000000 -0.000000 -0.000000 0.209538 -4.086953 -7.879171 0.160494 -0.507482 -11.168790 0.015277 -0.119314 -2.283902 -0.000000 -0.000000 0.000001 0.189244 -1.979475 -18.821355 -0.061997 -0.773675 -15.241634 0.054673 -0.340127 -6.493685 -0.000001 -0.000001 0.000000 0.140097 -1.923744 -28.405058 -0.256673 -1.160877 -22.616513 0.072474 -0.264733 -4.961448 0.000001 0.000000 0.000002 0.362148 -0.940267 -34.737239 -0.098367 -1.023074 -19.152354 -0.498355 -0.552684 -10.713857 -0.000000 0.000001 0.000003 4.854600 -16.949463 2.779315 0.000000 0.000000 0.000000 27.281647 49.320256 18.941535 19.387560 21.796660 11.319704 -7.957912 11.669717 0.884157 8.265312 7.734441 -18.880880 5.407731 -20.572204 9.831401 2.567653 -3.239610 2.521199 -0.000001 0.000000 0.000001 0.272418 4.252686 3.917171 0.097356 0.794970 17.452785 -0.022308 0.374593 8.076867 -0.000001 0.000001 -0.000001 0.239286 1.901252 12.464062 -0.127009 0.878953 17.470149 -0.244898 0.924063 18.481705 0.000001 -0.000000 -0.000003 0.313111 1.756901 17.989202 -0.310287 1.041335 20.987102 -0.031210 0.975075 17.926084 0.000001 0.000001 -0.000001 0.625810 0.703311 24.132008 -0.154048 0.903427 17.466313 -0.505604 0.829009 16.563552 -0.000001 0.000001 -0.000001 -35.165823 5.635120 16.391489 45.457477 8.309958 -1.064272 -15.870621 5.533352 -9.770397 -3.075505 -2.348378 -2.459418 -0.000000 0.000000 0.000000 -20.999615 -8.049378 -15.018145 41.102238 -4.332261 -2.473776 -19.125570 -1.801024 15.186741 -6.091130 -2.859792 6.888653 0.000000 0.000001 -0.000000 
